<?xml version="1.0" encoding="utf-8"?>
<!-- Svg Vector Icons : http://www.onlinewebfonts.com/icon -->
<!DOCTYPE svg PUBLIC "-//W3C//DTD SVG 1.1//EN" "http://www.w3.org/Graphics/SVG/1.1/DTD/svg11.dtd">
<svg version="1.1" xmlns="http://www.w3.org/2000/svg" xmlns:xlink="http://www.w3.org/1999/xlink" x="0px" y="0px" viewBox="0 0 1000 1000" enable-background="new 0 0 1000 1000" xml:space="preserve">
<metadata> Svg Vector Icons : http://www.onlinewebfonts.com/icon </metadata>
<g><g transform="translate(0.000000,511.000000) scale(0.100000,-0.100000)"><path d="M4687.6,340.7c-502.3-1402.6-949.4-2652.1-994.3-2776.7l-81.7-230.7H3924h310.3L5222.5,83.5c543.1,1512.9,990.2,2762.4,996.3,2776.7c8.2,20.4-55.1,26.5-304.2,26.5h-314.4L4687.6,340.7z"/><path d="M1661.9,1471.8C888.1,1030.8,218.4,651,177.6,626.5L100,581.6V114.1v-469.6l1490.4-849.4c820.8-467.5,1496.5-849.3,1500.6-849.3c6.1,0,10.2,247,10.2,547.2v547.1L2058-416.7L1012.6,126.3L2058,649l1043.3,522.7v551.3c0,304.2-6.1,551.3-14.3,549.2C3076.7,2272.1,2437.7,1910.8,1661.9,1471.8z"/><path d="M6902.8,1729l6.1-547.2l867.7-445.1c477.8-245,945.3-483.9,1037.2-532.9l171.5-85.8L7942-420.8l-1043.3-539V-1507c0-300.1,4.1-547.2,10.2-547.2c6.1,0,681.9,383.8,1500.6,851.4L9900-351.4l-4.1,469.6l-6.1,469.6l-255.2,145c-853.4,488-2717.5,1541.5-2725.6,1541.5C6902.8,2274.2,6900.8,2029.2,6902.8,1729z"/></g></g>
</svg>